%TF.GenerationSoftware,KiCad,Pcbnew,9.0.5*%
%TF.CreationDate,2026-03-30T09:30:45+02:00*%
%TF.ProjectId,pcb_drumled,7063625f-6472-4756-9d6c-65642e6b6963,rev?*%
%TF.SameCoordinates,Original*%
%TF.FileFunction,Copper,L2,Bot*%
%TF.FilePolarity,Positive*%
%FSLAX46Y46*%
G04 Gerber Fmt 4.6, Leading zero omitted, Abs format (unit mm)*
G04 Created by KiCad (PCBNEW 9.0.5) date 2026-03-30 09:30:45*
%MOMM*%
%LPD*%
G01*
G04 APERTURE LIST*
G04 Aperture macros list*
%AMRoundRect*
0 Rectangle with rounded corners*
0 $1 Rounding radius*
0 $2 $3 $4 $5 $6 $7 $8 $9 X,Y pos of 4 corners*
0 Add a 4 corners polygon primitive as box body*
4,1,4,$2,$3,$4,$5,$6,$7,$8,$9,$2,$3,0*
0 Add four circle primitives for the rounded corners*
1,1,$1+$1,$2,$3*
1,1,$1+$1,$4,$5*
1,1,$1+$1,$6,$7*
1,1,$1+$1,$8,$9*
0 Add four rect primitives between the rounded corners*
20,1,$1+$1,$2,$3,$4,$5,0*
20,1,$1+$1,$4,$5,$6,$7,0*
20,1,$1+$1,$6,$7,$8,$9,0*
20,1,$1+$1,$8,$9,$2,$3,0*%
G04 Aperture macros list end*
%TA.AperFunction,Conductor*%
%ADD10C,0.200000*%
%TD*%
%TA.AperFunction,ComponentPad*%
%ADD11R,0.850000X0.850000*%
%TD*%
%TA.AperFunction,ComponentPad*%
%ADD12C,0.850000*%
%TD*%
%TA.AperFunction,ComponentPad*%
%ADD13C,4.400000*%
%TD*%
%TA.AperFunction,ComponentPad*%
%ADD14RoundRect,0.250000X0.600000X0.750000X-0.600000X0.750000X-0.600000X-0.750000X0.600000X-0.750000X0*%
%TD*%
%TA.AperFunction,ComponentPad*%
%ADD15O,1.700000X2.000000*%
%TD*%
%TA.AperFunction,ComponentPad*%
%ADD16C,2.775000*%
%TD*%
%TA.AperFunction,ComponentPad*%
%ADD17RoundRect,0.250000X-0.725000X0.600000X-0.725000X-0.600000X0.725000X-0.600000X0.725000X0.600000X0*%
%TD*%
%TA.AperFunction,ComponentPad*%
%ADD18O,1.950000X1.700000*%
%TD*%
%TA.AperFunction,ViaPad*%
%ADD19C,0.600000*%
%TD*%
G04 APERTURE END LIST*
D10*
%TO.N,RESET*%
X222000000Y-56400000D02*
X225600000Y-50800000D01*
%TO.N,SCL*%
X227300000Y-57600000D02*
X226300000Y-50493899D01*
%TO.N,RX*%
X226400000Y-49800000D02*
X226700000Y-50400000D01*
X226400000Y-49800000D02*
X225000000Y-48100000D01*
X226700000Y-50400000D02*
X227600000Y-56600000D01*
%TO.N,SCL*%
X226300000Y-50493899D02*
X226000000Y-50000000D01*
%TO.N,3.3V*%
X228800000Y-61200000D02*
X228800000Y-69800000D01*
%TO.N,SCL*%
X222600000Y-47200000D02*
X220500000Y-45500000D01*
X226000000Y-50000000D02*
X222600000Y-47200000D01*
%TO.N,RX*%
X227600000Y-56600000D02*
X228000000Y-57200000D01*
%TO.N,SCL*%
X228000000Y-58000000D02*
X227300000Y-57600000D01*
%TO.N,RX*%
X225000000Y-48100000D02*
X225000000Y-46800000D01*
%TD*%
D11*
%TO.P,connecteur_capteur1,1,Pin_1*%
%TO.N,SCL*%
X220000000Y-44600000D03*
D12*
%TO.P,connecteur_capteur1,2,Pin_2*%
%TO.N,SDA*%
X219000000Y-44600000D03*
%TO.P,connecteur_capteur1,3,Pin_3*%
%TO.N,3.3V*%
X218000000Y-44600000D03*
%TO.P,connecteur_capteur1,4,Pin_4*%
%TO.N,GND*%
X217000000Y-44600000D03*
%TD*%
D13*
%TO.P,H2,1,1*%
%TO.N,GND*%
X208788000Y-71120000D03*
%TD*%
D14*
%TO.P,connecteur_batterie1,1,Pin_1*%
%TO.N,Switch2*%
X222300000Y-68600000D03*
D15*
%TO.P,connecteur_batterie1,2,Pin_2*%
%TO.N,GND*%
X219800000Y-68600000D03*
%TD*%
D16*
%TO.P,switch_on_off1,1,C*%
%TO.N,unconnected-(switch_on_off1-C-Pad1)*%
X212600000Y-65800000D03*
%TO.P,switch_on_off1,2,B*%
%TO.N,Switch2*%
X212600000Y-61100000D03*
%TO.P,switch_on_off1,3,A*%
%TO.N,5V*%
X212600000Y-56400000D03*
%TD*%
D13*
%TO.P,H5,1,1*%
%TO.N,GND*%
X241808000Y-71120000D03*
%TD*%
%TO.P,H3,1,1*%
%TO.N,GND*%
X241808000Y-45212000D03*
%TD*%
%TO.P,H1,1,1*%
%TO.N,GND*%
X208788000Y-45212000D03*
%TD*%
D17*
%TO.P,rgb_neopix1,1,Pin_1*%
%TO.N,DATA_IN*%
X236400000Y-59500000D03*
D18*
%TO.P,rgb_neopix1,2,Pin_2*%
%TO.N,5V*%
X236400000Y-62000000D03*
%TO.P,rgb_neopix1,3,Pin_3*%
%TO.N,GND*%
X236400000Y-64500000D03*
%TD*%
D19*
%TO.N,GND*%
X244000000Y-53000000D03*
X242000000Y-53000000D03*
X240000000Y-53000000D03*
X238000000Y-53000000D03*
X236000000Y-53000000D03*
X236000000Y-57000000D03*
X238000000Y-57000000D03*
%TO.N,3.3V*%
X216020198Y-54071592D03*
X233680000Y-57500000D03*
%TO.N,GND*%
X215900000Y-56642000D03*
X216662000Y-53594000D03*
%TO.N,*%
X238000000Y-46000000D03*
X236000000Y-46000000D03*
X234000000Y-46000000D03*
X238000000Y-44000000D03*
X234000000Y-44000000D03*
X236000000Y-44000000D03*
%TO.N,3.3V*%
X228800000Y-61200000D03*
X228800000Y-69800000D03*
%TO.N,SCL*%
X228000000Y-58000000D03*
%TO.N,RESET*%
X222000000Y-56400000D03*
X225600000Y-50600000D03*
%TO.N,GND*%
X242000000Y-68000000D03*
X234000000Y-61500000D03*
X216000000Y-72000000D03*
X244000000Y-64000000D03*
X234000000Y-70000000D03*
X222000000Y-72000000D03*
X210000000Y-50000000D03*
X236000000Y-70000000D03*
X244000000Y-62000000D03*
X244000000Y-60000000D03*
X234000000Y-72000000D03*
X232000000Y-72000000D03*
X208000000Y-60000000D03*
X218000000Y-72000000D03*
X214000000Y-72000000D03*
X238000000Y-50000000D03*
X220000000Y-72000000D03*
X216000000Y-52000000D03*
X218000000Y-50000000D03*
X232000000Y-56000000D03*
X228000000Y-68000000D03*
X234000000Y-48000000D03*
X208000000Y-54000000D03*
X208000000Y-52000000D03*
X212000000Y-70000000D03*
X226000000Y-56000000D03*
X226000000Y-68000000D03*
X240000000Y-68000000D03*
X236000000Y-68000000D03*
X224000000Y-68000000D03*
X208000000Y-58000000D03*
X212000000Y-50000000D03*
X224000000Y-72000000D03*
X214000000Y-50000000D03*
X216000000Y-70000000D03*
X208000000Y-50000000D03*
X236000000Y-72000000D03*
X238000000Y-55000000D03*
X212000000Y-52000000D03*
X218000000Y-68000000D03*
X236000000Y-55000000D03*
X220000000Y-48000000D03*
X234000000Y-64000000D03*
X214000000Y-68000000D03*
X238000000Y-68000000D03*
X218000000Y-60000000D03*
X212000000Y-72000000D03*
X226000000Y-72000000D03*
X242000000Y-60000000D03*
X218000000Y-62000000D03*
X234000000Y-66000000D03*
X214000000Y-52000000D03*
X242000000Y-62000000D03*
X242000000Y-64000000D03*
X220000000Y-64000000D03*
X216000000Y-50000000D03*
X240000000Y-62000000D03*
X228000000Y-70000000D03*
X224000000Y-64000000D03*
X238000000Y-70000000D03*
X240000000Y-66000000D03*
X236000000Y-48000000D03*
X226000000Y-54000000D03*
X224000000Y-66000000D03*
X224000000Y-70000000D03*
X236000000Y-50000000D03*
X226000000Y-66000000D03*
X222000000Y-66000000D03*
X224000000Y-58000000D03*
X242000000Y-66000000D03*
X238000000Y-48000000D03*
X242000000Y-48000000D03*
X232000000Y-68000000D03*
X240000000Y-60000000D03*
X208000000Y-62000000D03*
X208000000Y-66000000D03*
X208000000Y-64000000D03*
X234000000Y-50000000D03*
X220000000Y-66000000D03*
X240000000Y-64000000D03*
X244000000Y-68000000D03*
X236000000Y-66000000D03*
X238000000Y-72000000D03*
X208000000Y-56000000D03*
X208000000Y-68000000D03*
X232000000Y-52000000D03*
X220000000Y-62000000D03*
X212000000Y-47000000D03*
X244000000Y-66000000D03*
X226000000Y-70000000D03*
X238000000Y-66000000D03*
X212000000Y-68000000D03*
X214000000Y-70000000D03*
X240000000Y-55000000D03*
X220800000Y-50000000D03*
X242000000Y-50000000D03*
X232000000Y-70000000D03*
X216000000Y-68000000D03*
X222000000Y-64000000D03*
X218000000Y-47000000D03*
%TO.N,RX*%
X225000000Y-46800000D03*
X228000000Y-57200000D03*
%TD*%
D10*
%TO.N,3.3V*%
X222620606Y-60672000D02*
X216020198Y-54071592D01*
X229328000Y-60672000D02*
X222620606Y-60672000D01*
X229328000Y-60672000D02*
X232500000Y-57500000D01*
X232500000Y-57500000D02*
X232825000Y-57500000D01*
X228800000Y-61200000D02*
X229328000Y-60672000D01*
%TO.N,SCL*%
X220000000Y-45000000D02*
X220000000Y-44600000D01*
X220500000Y-45500000D02*
X220000000Y-45000000D01*
%TD*%
%TA.AperFunction,Conductor*%
%TO.N,GND*%
G36*
X242304028Y-42500764D02*
G01*
X242566027Y-42517936D01*
X242582083Y-42520051D01*
X242769691Y-42557368D01*
X242835572Y-42570473D01*
X242851239Y-42574671D01*
X243031781Y-42635956D01*
X243095978Y-42657749D01*
X243110955Y-42663952D01*
X243338478Y-42776153D01*
X243342760Y-42778265D01*
X243356808Y-42786375D01*
X243571706Y-42929966D01*
X243584570Y-42939837D01*
X243778884Y-43110246D01*
X243790353Y-43121715D01*
X243960762Y-43316029D01*
X243970636Y-43328897D01*
X244114224Y-43543792D01*
X244122334Y-43557839D01*
X244236644Y-43789637D01*
X244242851Y-43804623D01*
X244325928Y-44049360D01*
X244330126Y-44065027D01*
X244357859Y-44204447D01*
X244377917Y-44305289D01*
X244380546Y-44318503D01*
X244382664Y-44334585D01*
X244399233Y-44587397D01*
X244399498Y-44595509D01*
X244398900Y-71405083D01*
X244398635Y-71413190D01*
X244382069Y-71665936D01*
X244379951Y-71682017D01*
X244329546Y-71935420D01*
X244325348Y-71951088D01*
X244242298Y-72195745D01*
X244236091Y-72210730D01*
X244121814Y-72442460D01*
X244113704Y-72456506D01*
X243970160Y-72671336D01*
X243960286Y-72684205D01*
X243789929Y-72878460D01*
X243778460Y-72889929D01*
X243584205Y-73060286D01*
X243571336Y-73070160D01*
X243356506Y-73213704D01*
X243342460Y-73221814D01*
X243110730Y-73336091D01*
X243095745Y-73342298D01*
X242851088Y-73425348D01*
X242835420Y-73429546D01*
X242582010Y-73479952D01*
X242565929Y-73482069D01*
X242304058Y-73499234D01*
X242295948Y-73499500D01*
X208254052Y-73499500D01*
X208245942Y-73499234D01*
X207984070Y-73482069D01*
X207967989Y-73479952D01*
X207714579Y-73429546D01*
X207698911Y-73425348D01*
X207454254Y-73342298D01*
X207439269Y-73336091D01*
X207207539Y-73221814D01*
X207193493Y-73213704D01*
X206978663Y-73070160D01*
X206965794Y-73060286D01*
X206771539Y-72889929D01*
X206760070Y-72878460D01*
X206589713Y-72684205D01*
X206579839Y-72671336D01*
X206436295Y-72456506D01*
X206428185Y-72442460D01*
X206313908Y-72210730D01*
X206307704Y-72195752D01*
X206224648Y-71951077D01*
X206220453Y-71935420D01*
X206210561Y-71885691D01*
X206170046Y-71682005D01*
X206167931Y-71665949D01*
X206150764Y-71404028D01*
X206150500Y-71395948D01*
X206150500Y-68343753D01*
X218450000Y-68343753D01*
X218450000Y-68350000D01*
X219366988Y-68350000D01*
X219334075Y-68407007D01*
X219300000Y-68534174D01*
X219300000Y-68665826D01*
X219334075Y-68792993D01*
X219366988Y-68850000D01*
X218450000Y-68850000D01*
X218450000Y-68856246D01*
X218483242Y-69066127D01*
X218483242Y-69066130D01*
X218548904Y-69268217D01*
X218645379Y-69457557D01*
X218770272Y-69629459D01*
X218770276Y-69629464D01*
X218920535Y-69779723D01*
X218920540Y-69779727D01*
X219092442Y-69904620D01*
X219281782Y-70001095D01*
X219483871Y-70066757D01*
X219550000Y-70077231D01*
X219550000Y-69033012D01*
X219607007Y-69065925D01*
X219734174Y-69100000D01*
X219865826Y-69100000D01*
X219992993Y-69065925D01*
X220050000Y-69033012D01*
X220050000Y-70077230D01*
X220116126Y-70066757D01*
X220116129Y-70066757D01*
X220318217Y-70001095D01*
X220507557Y-69904620D01*
X220679459Y-69779727D01*
X220679464Y-69779723D01*
X220829723Y-69629464D01*
X220829727Y-69629459D01*
X220954620Y-69457557D01*
X221015015Y-69339028D01*
X221062990Y-69288232D01*
X221130811Y-69271437D01*
X221196946Y-69293974D01*
X221240397Y-69348690D01*
X221249500Y-69395323D01*
X221249500Y-69404269D01*
X221252353Y-69434699D01*
X221252353Y-69434701D01*
X221297206Y-69562880D01*
X221297207Y-69562882D01*
X221377850Y-69672150D01*
X221487118Y-69752793D01*
X221529845Y-69767744D01*
X221615299Y-69797646D01*
X221645730Y-69800500D01*
X221645734Y-69800500D01*
X222954270Y-69800500D01*
X222984699Y-69797646D01*
X222984701Y-69797646D01*
X223048790Y-69775219D01*
X223112882Y-69752793D01*
X223222150Y-69672150D01*
X223302793Y-69562882D01*
X223339648Y-69457557D01*
X223347646Y-69434701D01*
X223347646Y-69434699D01*
X223350500Y-69404269D01*
X223350500Y-67795730D01*
X223347646Y-67765300D01*
X223347646Y-67765298D01*
X223302793Y-67637119D01*
X223302792Y-67637117D01*
X223253656Y-67570540D01*
X223222150Y-67527850D01*
X223112882Y-67447207D01*
X223112880Y-67447206D01*
X222984700Y-67402353D01*
X222954270Y-67399500D01*
X222954266Y-67399500D01*
X221645734Y-67399500D01*
X221645730Y-67399500D01*
X221615300Y-67402353D01*
X221615298Y-67402353D01*
X221487119Y-67447206D01*
X221487117Y-67447207D01*
X221377850Y-67527850D01*
X221297207Y-67637117D01*
X221297206Y-67637119D01*
X221252353Y-67765298D01*
X221252353Y-67765300D01*
X221249500Y-67795730D01*
X221249500Y-67804676D01*
X221229815Y-67871715D01*
X221177011Y-67917470D01*
X221107853Y-67927414D01*
X221044297Y-67898389D01*
X221015015Y-67860971D01*
X220954620Y-67742442D01*
X220829727Y-67570540D01*
X220829723Y-67570535D01*
X220679464Y-67420276D01*
X220679459Y-67420272D01*
X220507557Y-67295379D01*
X220318215Y-67198903D01*
X220116124Y-67133241D01*
X220050000Y-67122768D01*
X220050000Y-68166988D01*
X219992993Y-68134075D01*
X219865826Y-68100000D01*
X219734174Y-68100000D01*
X219607007Y-68134075D01*
X219550000Y-68166988D01*
X219550000Y-67122768D01*
X219549999Y-67122768D01*
X219483875Y-67133241D01*
X219281784Y-67198903D01*
X219092442Y-67295379D01*
X218920540Y-67420272D01*
X218920535Y-67420276D01*
X218770276Y-67570535D01*
X218770272Y-67570540D01*
X218645379Y-67742442D01*
X218548904Y-67931782D01*
X218483242Y-68133869D01*
X218483242Y-68133872D01*
X218450000Y-68343753D01*
X206150500Y-68343753D01*
X206150500Y-65675022D01*
X211012000Y-65675022D01*
X211012000Y-65924977D01*
X211051102Y-66171857D01*
X211128344Y-66409584D01*
X211241821Y-66632293D01*
X211388742Y-66834512D01*
X211565488Y-67011258D01*
X211767707Y-67158179D01*
X211872929Y-67211792D01*
X211990415Y-67271655D01*
X211990417Y-67271655D01*
X211990420Y-67271657D01*
X212228143Y-67348898D01*
X212475022Y-67388000D01*
X212475023Y-67388000D01*
X212724977Y-67388000D01*
X212724978Y-67388000D01*
X212971857Y-67348898D01*
X213209580Y-67271657D01*
X213432293Y-67158179D01*
X213634512Y-67011258D01*
X213811258Y-66834512D01*
X213958179Y-66632293D01*
X214071657Y-66409580D01*
X214148898Y-66171857D01*
X214188000Y-65924978D01*
X214188000Y-65675022D01*
X214148898Y-65428143D01*
X214071657Y-65190420D01*
X214071655Y-65190417D01*
X214071655Y-65190415D01*
X213958178Y-64967706D01*
X213939959Y-64942630D01*
X213811258Y-64765488D01*
X213634512Y-64588742D01*
X213432293Y-64441821D01*
X213423744Y-64437465D01*
X213209584Y-64328344D01*
X212971857Y-64251102D01*
X212964899Y-64250000D01*
X212724978Y-64212000D01*
X212475022Y-64212000D01*
X212351582Y-64231551D01*
X212228142Y-64251102D01*
X211990415Y-64328344D01*
X211767706Y-64441821D01*
X211652333Y-64525644D01*
X211565488Y-64588742D01*
X211565486Y-64588744D01*
X211565485Y-64588744D01*
X211388744Y-64765485D01*
X211388744Y-64765486D01*
X211388742Y-64765488D01*
X211369729Y-64791657D01*
X211241821Y-64967706D01*
X211128344Y-65190415D01*
X211051102Y-65428142D01*
X211012000Y-65675022D01*
X206150500Y-65675022D01*
X206150500Y-60975022D01*
X211012000Y-60975022D01*
X211012000Y-61224977D01*
X211051102Y-61471857D01*
X211128344Y-61709584D01*
X211223599Y-61896530D01*
X211241821Y-61932293D01*
X211388742Y-62134512D01*
X211565488Y-62311258D01*
X211767707Y-62458179D01*
X211845067Y-62497596D01*
X211990415Y-62571655D01*
X211990417Y-62571655D01*
X211990420Y-62571657D01*
X212228143Y-62648898D01*
X212475022Y-62688000D01*
X212475023Y-62688000D01*
X212724977Y-62688000D01*
X212724978Y-62688000D01*
X212971857Y-62648898D01*
X213209580Y-62571657D01*
X213432293Y-62458179D01*
X213634512Y-62311258D01*
X213811258Y-62134512D01*
X213958179Y-61932293D01*
X214071657Y-61709580D01*
X214148898Y-61471857D01*
X214188000Y-61224978D01*
X214188000Y-60975022D01*
X214148898Y-60728143D01*
X214071657Y-60490420D01*
X214071655Y-60490417D01*
X214071655Y-60490415D01*
X213958178Y-60267706D01*
X213897871Y-60184701D01*
X213811258Y-60065488D01*
X213634512Y-59888742D01*
X213432293Y-59741821D01*
X213209584Y-59628344D01*
X212971857Y-59551102D01*
X212724978Y-59512000D01*
X212475022Y-59512000D01*
X212351582Y-59531551D01*
X212228142Y-59551102D01*
X211990415Y-59628344D01*
X211767706Y-59741821D01*
X211652333Y-59825644D01*
X211565488Y-59888742D01*
X211565486Y-59888744D01*
X211565485Y-59888744D01*
X211388744Y-60065485D01*
X211388744Y-60065486D01*
X211388742Y-60065488D01*
X211325644Y-60152333D01*
X211241821Y-60267706D01*
X211128344Y-60490415D01*
X211051102Y-60728142D01*
X211012000Y-60975022D01*
X206150500Y-60975022D01*
X206150500Y-56275022D01*
X211012000Y-56275022D01*
X211012000Y-56524978D01*
X211039574Y-56699070D01*
X211051102Y-56771857D01*
X211128344Y-57009584D01*
X211191793Y-57134108D01*
X211241821Y-57232293D01*
X211388742Y-57434512D01*
X211565488Y-57611258D01*
X211767707Y-57758179D01*
X211849860Y-57800038D01*
X211990415Y-57871655D01*
X211990417Y-57871655D01*
X211990420Y-57871657D01*
X212228143Y-57948898D01*
X212475022Y-57988000D01*
X212475023Y-57988000D01*
X212724977Y-57988000D01*
X212724978Y-57988000D01*
X212971857Y-57948898D01*
X213209580Y-57871657D01*
X213432293Y-57758179D01*
X213634512Y-57611258D01*
X213811258Y-57434512D01*
X213958179Y-57232293D01*
X214071657Y-57009580D01*
X214148898Y-56771857D01*
X214188000Y-56524978D01*
X214188000Y-56275022D01*
X214148898Y-56028143D01*
X214071657Y-55790420D01*
X214071655Y-55790417D01*
X214071655Y-55790415D01*
X213958178Y-55567706D01*
X213811258Y-55365488D01*
X213634512Y-55188742D01*
X213432293Y-55041821D01*
X213209584Y-54928344D01*
X212971857Y-54851102D01*
X212724978Y-54812000D01*
X212475022Y-54812000D01*
X212351582Y-54831551D01*
X212228142Y-54851102D01*
X211990415Y-54928344D01*
X211767706Y-55041821D01*
X211652333Y-55125644D01*
X211565488Y-55188742D01*
X211565486Y-55188744D01*
X211565485Y-55188744D01*
X211388744Y-55365485D01*
X211388744Y-55365486D01*
X211388742Y-55365488D01*
X211325644Y-55452333D01*
X211241821Y-55567706D01*
X211128344Y-55790415D01*
X211051102Y-56028142D01*
X211012000Y-56275022D01*
X206150500Y-56275022D01*
X206150500Y-54005700D01*
X215519698Y-54005700D01*
X215519698Y-54137484D01*
X215532012Y-54183440D01*
X215553806Y-54264779D01*
X215586752Y-54321842D01*
X215619698Y-54378906D01*
X215712884Y-54472092D01*
X215827012Y-54537984D01*
X215954306Y-54572092D01*
X215954308Y-54572092D01*
X216044365Y-54572092D01*
X216111404Y-54591777D01*
X216132046Y-54608411D01*
X222436095Y-60912460D01*
X222504618Y-60952022D01*
X222581044Y-60972500D01*
X228181203Y-60972500D01*
X228248242Y-60992185D01*
X228293997Y-61044989D01*
X228303941Y-61114147D01*
X228300978Y-61128592D01*
X228299500Y-61134106D01*
X228299500Y-61265891D01*
X228333608Y-61393187D01*
X228366554Y-61450250D01*
X228399500Y-61507314D01*
X228399502Y-61507316D01*
X228463181Y-61570995D01*
X228496666Y-61632318D01*
X228499500Y-61658676D01*
X228499500Y-69341323D01*
X228479815Y-69408362D01*
X228463182Y-69429004D01*
X228399500Y-69492686D01*
X228333608Y-69606812D01*
X228299500Y-69734108D01*
X228299500Y-69865891D01*
X228333608Y-69993187D01*
X228338174Y-70001095D01*
X228399500Y-70107314D01*
X228492686Y-70200500D01*
X228606814Y-70266392D01*
X228734108Y-70300500D01*
X228734110Y-70300500D01*
X228865890Y-70300500D01*
X228865892Y-70300500D01*
X228993186Y-70266392D01*
X229107314Y-70200500D01*
X229200500Y-70107314D01*
X229266392Y-69993186D01*
X229300500Y-69865892D01*
X229300500Y-69734108D01*
X229266392Y-69606814D01*
X229200500Y-69492686D01*
X229136818Y-69429004D01*
X229103334Y-69367680D01*
X229100500Y-69341323D01*
X229100500Y-64250000D01*
X234947769Y-64250000D01*
X235995854Y-64250000D01*
X235957370Y-64316657D01*
X235925000Y-64437465D01*
X235925000Y-64562535D01*
X235957370Y-64683343D01*
X235995854Y-64750000D01*
X234947769Y-64750000D01*
X234958242Y-64816126D01*
X234958242Y-64816129D01*
X235023904Y-65018217D01*
X235120379Y-65207557D01*
X235245272Y-65379459D01*
X235245276Y-65379464D01*
X235395535Y-65529723D01*
X235395540Y-65529727D01*
X235567442Y-65654620D01*
X235756782Y-65751095D01*
X235958872Y-65816757D01*
X236150000Y-65847029D01*
X236150000Y-64904145D01*
X236216657Y-64942630D01*
X236337465Y-64975000D01*
X236462535Y-64975000D01*
X236583343Y-64942630D01*
X236650000Y-64904145D01*
X236650000Y-65847028D01*
X236841127Y-65816757D01*
X237043217Y-65751095D01*
X237232557Y-65654620D01*
X237404459Y-65529727D01*
X237404464Y-65529723D01*
X237554723Y-65379464D01*
X237554727Y-65379459D01*
X237679620Y-65207557D01*
X237776095Y-65018217D01*
X237841757Y-64816129D01*
X237841757Y-64816126D01*
X237852231Y-64750000D01*
X236804146Y-64750000D01*
X236842630Y-64683343D01*
X236875000Y-64562535D01*
X236875000Y-64437465D01*
X236842630Y-64316657D01*
X236804146Y-64250000D01*
X237852231Y-64250000D01*
X237841757Y-64183873D01*
X237841757Y-64183870D01*
X237776095Y-63981782D01*
X237679620Y-63792442D01*
X237554727Y-63620540D01*
X237554723Y-63620535D01*
X237404464Y-63470276D01*
X237404459Y-63470272D01*
X237232557Y-63345379D01*
X237043216Y-63248904D01*
X236921144Y-63209240D01*
X236863468Y-63169802D01*
X236836270Y-63105444D01*
X236848185Y-63036597D01*
X236895429Y-62985122D01*
X236912006Y-62976749D01*
X237022598Y-62930941D01*
X237194655Y-62815977D01*
X237340977Y-62669655D01*
X237455941Y-62497598D01*
X237535130Y-62306420D01*
X237575500Y-62103465D01*
X237575500Y-61896535D01*
X237535130Y-61693580D01*
X237455941Y-61502402D01*
X237340977Y-61330345D01*
X237340975Y-61330342D01*
X237194657Y-61184024D01*
X237090077Y-61114147D01*
X237022598Y-61069059D01*
X236964488Y-61044989D01*
X236831420Y-60989870D01*
X236831412Y-60989868D01*
X236628469Y-60949500D01*
X236628465Y-60949500D01*
X236171535Y-60949500D01*
X236171530Y-60949500D01*
X235968587Y-60989868D01*
X235968579Y-60989870D01*
X235777403Y-61069058D01*
X235605342Y-61184024D01*
X235459024Y-61330342D01*
X235344058Y-61502403D01*
X235264870Y-61693579D01*
X235264868Y-61693587D01*
X235224500Y-61896530D01*
X235224500Y-62103469D01*
X235264868Y-62306412D01*
X235264870Y-62306420D01*
X235344058Y-62497596D01*
X235459024Y-62669657D01*
X235605342Y-62815975D01*
X235605345Y-62815977D01*
X235777402Y-62930941D01*
X235887990Y-62976748D01*
X235942393Y-63020589D01*
X235964458Y-63086883D01*
X235947179Y-63154582D01*
X235896042Y-63202193D01*
X235878856Y-63209240D01*
X235756781Y-63248905D01*
X235567442Y-63345379D01*
X235395540Y-63470272D01*
X235395535Y-63470276D01*
X235245276Y-63620535D01*
X235245272Y-63620540D01*
X235120379Y-63792442D01*
X235023904Y-63981782D01*
X234958242Y-64183870D01*
X234958242Y-64183873D01*
X234947769Y-64250000D01*
X229100500Y-64250000D01*
X229100500Y-61658676D01*
X229120185Y-61591637D01*
X229136819Y-61570995D01*
X229200500Y-61507314D01*
X229266392Y-61393186D01*
X229300500Y-61265892D01*
X229300500Y-61175832D01*
X229320185Y-61108793D01*
X229336819Y-61088151D01*
X229435101Y-60989870D01*
X229568460Y-60856511D01*
X231579241Y-58845730D01*
X235224500Y-58845730D01*
X235224500Y-60154269D01*
X235227353Y-60184699D01*
X235227353Y-60184701D01*
X235272206Y-60312880D01*
X235272207Y-60312882D01*
X235352850Y-60422150D01*
X235462118Y-60502793D01*
X235504845Y-60517744D01*
X235590299Y-60547646D01*
X235620730Y-60550500D01*
X235620734Y-60550500D01*
X237179270Y-60550500D01*
X237209699Y-60547646D01*
X237209701Y-60547646D01*
X237273790Y-60525219D01*
X237337882Y-60502793D01*
X237447150Y-60422150D01*
X237527793Y-60312882D01*
X237550219Y-60248790D01*
X237572646Y-60184701D01*
X237572646Y-60184699D01*
X237575500Y-60154269D01*
X237575500Y-58845730D01*
X237572646Y-58815300D01*
X237572646Y-58815298D01*
X237527793Y-58687119D01*
X237527792Y-58687117D01*
X237447150Y-58577850D01*
X237337882Y-58497207D01*
X237337880Y-58497206D01*
X237209700Y-58452353D01*
X237179270Y-58449500D01*
X237179266Y-58449500D01*
X235620734Y-58449500D01*
X235620730Y-58449500D01*
X235590300Y-58452353D01*
X235590298Y-58452353D01*
X235462119Y-58497206D01*
X235462117Y-58497207D01*
X235352850Y-58577850D01*
X235272207Y-58687117D01*
X235272206Y-58687119D01*
X235227353Y-58815298D01*
X235227353Y-58815300D01*
X235224500Y-58845730D01*
X231579241Y-58845730D01*
X232588152Y-57836819D01*
X232649475Y-57803334D01*
X232675833Y-57800500D01*
X232864560Y-57800500D01*
X232864562Y-57800500D01*
X232940989Y-57780021D01*
X233009511Y-57740460D01*
X233041939Y-57708031D01*
X233103259Y-57674547D01*
X233172951Y-57679531D01*
X233228885Y-57721401D01*
X233237006Y-57733713D01*
X233279497Y-57807310D01*
X233279499Y-57807312D01*
X233279500Y-57807314D01*
X233372686Y-57900500D01*
X233486814Y-57966392D01*
X233614108Y-58000500D01*
X233614110Y-58000500D01*
X233745890Y-58000500D01*
X233745892Y-58000500D01*
X233873186Y-57966392D01*
X233987314Y-57900500D01*
X234080500Y-57807314D01*
X234146392Y-57693186D01*
X234180500Y-57565892D01*
X234180500Y-57434108D01*
X234146392Y-57306814D01*
X234080500Y-57192686D01*
X233987314Y-57099500D01*
X233884514Y-57040148D01*
X233873187Y-57033608D01*
X233773188Y-57006814D01*
X233745892Y-56999500D01*
X233614108Y-56999500D01*
X233486812Y-57033608D01*
X233372686Y-57099500D01*
X233372683Y-57099502D01*
X233279502Y-57192683D01*
X233279500Y-57192686D01*
X233237006Y-57266287D01*
X233186438Y-57314502D01*
X233117831Y-57327724D01*
X233052966Y-57301756D01*
X233041938Y-57291967D01*
X233009512Y-57259541D01*
X233009504Y-57259535D01*
X232940995Y-57219982D01*
X232940990Y-57219979D01*
X232915513Y-57213152D01*
X232864562Y-57199500D01*
X232460438Y-57199500D01*
X232409486Y-57213152D01*
X232384010Y-57219979D01*
X232359002Y-57234417D01*
X232327290Y-57252727D01*
X232327287Y-57252729D01*
X232315488Y-57259540D01*
X232315486Y-57259541D01*
X229239848Y-60335181D01*
X229178525Y-60368666D01*
X229152167Y-60371500D01*
X222796439Y-60371500D01*
X222729400Y-60351815D01*
X222708758Y-60335181D01*
X216557017Y-54183440D01*
X216523532Y-54122117D01*
X216520698Y-54095759D01*
X216520698Y-54005702D01*
X216520698Y-54005700D01*
X216486590Y-53878406D01*
X216420698Y-53764278D01*
X216327512Y-53671092D01*
X216270448Y-53638146D01*
X216213385Y-53605200D01*
X216149737Y-53588146D01*
X216086090Y-53571092D01*
X215954306Y-53571092D01*
X215827010Y-53605200D01*
X215712884Y-53671092D01*
X215712881Y-53671094D01*
X215619700Y-53764275D01*
X215619698Y-53764278D01*
X215553806Y-53878404D01*
X215519698Y-54005700D01*
X206150500Y-54005700D01*
X206150500Y-45408500D01*
X216545050Y-45408500D01*
X216561849Y-45419725D01*
X216561855Y-45419728D01*
X216730182Y-45489451D01*
X216730194Y-45489454D01*
X216908890Y-45524999D01*
X216908894Y-45525000D01*
X217091106Y-45525000D01*
X217091109Y-45524999D01*
X217269805Y-45489454D01*
X217269813Y-45489452D01*
X217438151Y-45419724D01*
X217438154Y-45419723D01*
X217454947Y-45408500D01*
X217454948Y-45408500D01*
X217000001Y-44953553D01*
X217000000Y-44953553D01*
X216545050Y-45408500D01*
X206150500Y-45408500D01*
X206150500Y-44604051D01*
X206150763Y-44595972D01*
X206156471Y-44508890D01*
X216075000Y-44508890D01*
X216075000Y-44691109D01*
X216110545Y-44869805D01*
X216110548Y-44869817D01*
X216180271Y-45038145D01*
X216191498Y-45054947D01*
X216646446Y-44600000D01*
X216646446Y-44599999D01*
X216596719Y-44550272D01*
X216750000Y-44550272D01*
X216750000Y-44649728D01*
X216788060Y-44741614D01*
X216858386Y-44811940D01*
X216950272Y-44850000D01*
X217049728Y-44850000D01*
X217141614Y-44811940D01*
X217211940Y-44741614D01*
X217250000Y-44649728D01*
X217250000Y-44599999D01*
X217353553Y-44599999D01*
X217353553Y-44600000D01*
X217506882Y-44753329D01*
X217529016Y-44786453D01*
X217529545Y-44786148D01*
X217533607Y-44793184D01*
X217533608Y-44793186D01*
X217599500Y-44907314D01*
X217692686Y-45000500D01*
X217806814Y-45066392D01*
X217934108Y-45100500D01*
X217934110Y-45100500D01*
X218065890Y-45100500D01*
X218065892Y-45100500D01*
X218193186Y-45066392D01*
X218307314Y-45000500D01*
X218400500Y-44907314D01*
X218400504Y-44907306D01*
X218401625Y-44905847D01*
X218402892Y-44904921D01*
X218406247Y-44901567D01*
X218406770Y-44902090D01*
X218458053Y-44864645D01*
X218527799Y-44860491D01*
X218588719Y-44894704D01*
X218598375Y-44905847D01*
X218599498Y-44907311D01*
X218599500Y-44907314D01*
X218692686Y-45000500D01*
X218806814Y-45066392D01*
X218934108Y-45100500D01*
X218934110Y-45100500D01*
X219065890Y-45100500D01*
X219065892Y-45100500D01*
X219193186Y-45066392D01*
X219307314Y-45000500D01*
X219307321Y-45000492D01*
X219313760Y-44995553D01*
X219315549Y-44997885D01*
X219364466Y-44971155D01*
X219434160Y-44976118D01*
X219490106Y-45017972D01*
X219505422Y-45044858D01*
X219508590Y-45052506D01*
X219508590Y-45052507D01*
X219508591Y-45052508D01*
X219524172Y-45075828D01*
X219547492Y-45091409D01*
X219547494Y-45091409D01*
X219547496Y-45091410D01*
X219568055Y-45095500D01*
X219568058Y-45095500D01*
X219636558Y-45095500D01*
X219703597Y-45115185D01*
X219743945Y-45157500D01*
X219759537Y-45184507D01*
X219759539Y-45184510D01*
X219759540Y-45184511D01*
X220270807Y-45695778D01*
X220280177Y-45708670D01*
X220298667Y-45723638D01*
X220315489Y-45740460D01*
X220320537Y-45743374D01*
X220320843Y-45743551D01*
X220336867Y-45754561D01*
X222123026Y-47200500D01*
X222409552Y-47432449D01*
X222410333Y-47433087D01*
X225129670Y-49672542D01*
X225435532Y-49924428D01*
X225474768Y-49982240D01*
X225476520Y-50052088D01*
X225440231Y-50111795D01*
X225413433Y-50128816D01*
X225413853Y-50129544D01*
X225292686Y-50199500D01*
X225292683Y-50199502D01*
X225199502Y-50292683D01*
X225199500Y-50292686D01*
X225133608Y-50406812D01*
X225099500Y-50534108D01*
X225099500Y-50665891D01*
X225133608Y-50793185D01*
X225133609Y-50793188D01*
X225149530Y-50820764D01*
X225166003Y-50888665D01*
X225146449Y-50949818D01*
X221996757Y-55849341D01*
X221943947Y-55895089D01*
X221924545Y-55902062D01*
X221872026Y-55916134D01*
X221806814Y-55933608D01*
X221806812Y-55933608D01*
X221806812Y-55933609D01*
X221692686Y-55999500D01*
X221692683Y-55999502D01*
X221599502Y-56092683D01*
X221599500Y-56092686D01*
X221533608Y-56206812D01*
X221499500Y-56334108D01*
X221499500Y-56465891D01*
X221533608Y-56593187D01*
X221565300Y-56648078D01*
X221599500Y-56707314D01*
X221692686Y-56800500D01*
X221806814Y-56866392D01*
X221934108Y-56900500D01*
X221934110Y-56900500D01*
X222065890Y-56900500D01*
X222065892Y-56900500D01*
X222193186Y-56866392D01*
X222307314Y-56800500D01*
X222400500Y-56707314D01*
X222466392Y-56593186D01*
X222500500Y-56465892D01*
X222500500Y-56334108D01*
X222485014Y-56276313D01*
X222486677Y-56206469D01*
X222500479Y-56177176D01*
X225765472Y-51098298D01*
X225775337Y-51088892D01*
X225780033Y-51079786D01*
X225807770Y-51057971D01*
X225896594Y-51006688D01*
X225964490Y-50990217D01*
X226030518Y-51013069D01*
X226073708Y-51067990D01*
X226081381Y-51096797D01*
X226998421Y-57613382D01*
X226999630Y-57630098D01*
X226999679Y-57640899D01*
X226999679Y-57640900D01*
X227003017Y-57653139D01*
X227006176Y-57668484D01*
X227007944Y-57681047D01*
X227007946Y-57681056D01*
X227012162Y-57690983D01*
X227017655Y-57706814D01*
X227017988Y-57708033D01*
X227020498Y-57717235D01*
X227030846Y-57734976D01*
X227038874Y-57753878D01*
X227050688Y-57768993D01*
X227054921Y-57776251D01*
X227054924Y-57776255D01*
X227060363Y-57785579D01*
X227069377Y-57794514D01*
X227069376Y-57794514D01*
X227074956Y-57800044D01*
X227087598Y-57816219D01*
X227102922Y-57827762D01*
X227108895Y-57833682D01*
X227108896Y-57833683D01*
X227116557Y-57841276D01*
X227116558Y-57841276D01*
X227116561Y-57841279D01*
X227134394Y-57851469D01*
X227150798Y-57863826D01*
X227168594Y-57871012D01*
X227452791Y-58033410D01*
X227501232Y-58083762D01*
X227511044Y-58108975D01*
X227533608Y-58193186D01*
X227599500Y-58307314D01*
X227692686Y-58400500D01*
X227806814Y-58466392D01*
X227934108Y-58500500D01*
X227934110Y-58500500D01*
X228065890Y-58500500D01*
X228065892Y-58500500D01*
X228193186Y-58466392D01*
X228307314Y-58400500D01*
X228400500Y-58307314D01*
X228466392Y-58193186D01*
X228500500Y-58065892D01*
X228500500Y-57934108D01*
X228466392Y-57806814D01*
X228400500Y-57692686D01*
X228395495Y-57687681D01*
X228362010Y-57626358D01*
X228366994Y-57556666D01*
X228395495Y-57512319D01*
X228400500Y-57507314D01*
X228466392Y-57393186D01*
X228500500Y-57265892D01*
X228500500Y-57134108D01*
X228466392Y-57006814D01*
X228400500Y-56892686D01*
X228307314Y-56799500D01*
X228193186Y-56733608D01*
X228093401Y-56706871D01*
X228064288Y-56699070D01*
X228041364Y-56685097D01*
X228016765Y-56674359D01*
X228008355Y-56664977D01*
X228004628Y-56662705D01*
X227993208Y-56648078D01*
X227903162Y-56513009D01*
X227883622Y-56462039D01*
X227865052Y-56334110D01*
X227003626Y-50399846D01*
X227003070Y-50386611D01*
X227002906Y-50386623D01*
X227002330Y-50378519D01*
X227002329Y-50378517D01*
X227002330Y-50378514D01*
X226996848Y-50351727D01*
X226995624Y-50344718D01*
X226991700Y-50317681D01*
X226988228Y-50309605D01*
X226986468Y-50300997D01*
X226972650Y-50273362D01*
X226960454Y-50244987D01*
X226960453Y-50244986D01*
X226960452Y-50244983D01*
X226956296Y-50238000D01*
X226956437Y-50237916D01*
X226949331Y-50226724D01*
X226672240Y-49672542D01*
X226671228Y-49670517D01*
X226657115Y-49639509D01*
X226653574Y-49635209D01*
X226651083Y-49630227D01*
X226651082Y-49630226D01*
X226651082Y-49630225D01*
X226629982Y-49606431D01*
X226627039Y-49602988D01*
X225328781Y-48026532D01*
X225301358Y-47962268D01*
X225300500Y-47947704D01*
X225300500Y-47258676D01*
X225320185Y-47191637D01*
X225336819Y-47170995D01*
X225400500Y-47107314D01*
X225466392Y-46993186D01*
X225500500Y-46865892D01*
X225500500Y-46734108D01*
X225466392Y-46606814D01*
X225400500Y-46492686D01*
X225307314Y-46399500D01*
X225250250Y-46366554D01*
X225193187Y-46333608D01*
X225129539Y-46316554D01*
X225065892Y-46299500D01*
X224934108Y-46299500D01*
X224806812Y-46333608D01*
X224692686Y-46399500D01*
X224692683Y-46399502D01*
X224599502Y-46492683D01*
X224599500Y-46492686D01*
X224533608Y-46606812D01*
X224499500Y-46734108D01*
X224499500Y-46865891D01*
X224533608Y-46993187D01*
X224536426Y-46998067D01*
X224599500Y-47107314D01*
X224599502Y-47107316D01*
X224663181Y-47170995D01*
X224696666Y-47232318D01*
X224699500Y-47258676D01*
X224699500Y-48085496D01*
X224697087Y-48110433D01*
X224699500Y-48124895D01*
X224699500Y-48139567D01*
X224704434Y-48157982D01*
X224705985Y-48163772D01*
X224710108Y-48188476D01*
X224716180Y-48201820D01*
X224718837Y-48211733D01*
X224718839Y-48211738D01*
X224719978Y-48215987D01*
X224729511Y-48232500D01*
X224732701Y-48238387D01*
X224733895Y-48240740D01*
X224742885Y-48260491D01*
X224745573Y-48263756D01*
X224750884Y-48274221D01*
X224756312Y-48303394D01*
X224764294Y-48331968D01*
X224762632Y-48337362D01*
X224763665Y-48342911D01*
X224752459Y-48370387D01*
X224743726Y-48398742D01*
X224739412Y-48402380D01*
X224737281Y-48407608D01*
X224712999Y-48424664D01*
X224690323Y-48443795D01*
X224684725Y-48444524D01*
X224680107Y-48447769D01*
X224650460Y-48448990D01*
X224621039Y-48452825D01*
X224615694Y-48450422D01*
X224610297Y-48450645D01*
X224590880Y-48439267D01*
X224561477Y-48426050D01*
X223111946Y-47232318D01*
X222827494Y-46998063D01*
X222823213Y-46994074D01*
X222790432Y-46967535D01*
X222789946Y-46967142D01*
X222760491Y-46942885D01*
X222759322Y-46942352D01*
X222752354Y-46936712D01*
X222752353Y-46936711D01*
X222752350Y-46936709D01*
X222213502Y-46500499D01*
X221513843Y-45934108D01*
X233499500Y-45934108D01*
X233499500Y-46065891D01*
X233533608Y-46193187D01*
X233566554Y-46250250D01*
X233599500Y-46307314D01*
X233692686Y-46400500D01*
X233806814Y-46466392D01*
X233934108Y-46500500D01*
X233934110Y-46500500D01*
X234065890Y-46500500D01*
X234065892Y-46500500D01*
X234193186Y-46466392D01*
X234307314Y-46400500D01*
X234400500Y-46307314D01*
X234466392Y-46193186D01*
X234500500Y-46065892D01*
X234500500Y-45934108D01*
X235499500Y-45934108D01*
X235499500Y-46065891D01*
X235533608Y-46193187D01*
X235566554Y-46250250D01*
X235599500Y-46307314D01*
X235692686Y-46400500D01*
X235806814Y-46466392D01*
X235934108Y-46500500D01*
X235934110Y-46500500D01*
X236065890Y-46500500D01*
X236065892Y-46500500D01*
X236193186Y-46466392D01*
X236307314Y-46400500D01*
X236400500Y-46307314D01*
X236466392Y-46193186D01*
X236500500Y-46065892D01*
X236500500Y-45934108D01*
X237499500Y-45934108D01*
X237499500Y-46065891D01*
X237533608Y-46193187D01*
X237566554Y-46250250D01*
X237599500Y-46307314D01*
X237692686Y-46400500D01*
X237806814Y-46466392D01*
X237934108Y-46500500D01*
X237934110Y-46500500D01*
X238065890Y-46500500D01*
X238065892Y-46500500D01*
X238193186Y-46466392D01*
X238307314Y-46400500D01*
X238400500Y-46307314D01*
X238466392Y-46193186D01*
X238500500Y-46065892D01*
X238500500Y-45934108D01*
X238466392Y-45806814D01*
X238400500Y-45692686D01*
X238307314Y-45599500D01*
X238250250Y-45566554D01*
X238193187Y-45533608D01*
X238129539Y-45516554D01*
X238065892Y-45499500D01*
X237934108Y-45499500D01*
X237806812Y-45533608D01*
X237692686Y-45599500D01*
X237692683Y-45599502D01*
X237599502Y-45692683D01*
X237599500Y-45692686D01*
X237533608Y-45806812D01*
X237499500Y-45934108D01*
X236500500Y-45934108D01*
X236466392Y-45806814D01*
X236400500Y-45692686D01*
X236307314Y-45599500D01*
X236250250Y-45566554D01*
X236193187Y-45533608D01*
X236129539Y-45516554D01*
X236065892Y-45499500D01*
X235934108Y-45499500D01*
X235806812Y-45533608D01*
X235692686Y-45599500D01*
X235692683Y-45599502D01*
X235599502Y-45692683D01*
X235599500Y-45692686D01*
X235533608Y-45806812D01*
X235499500Y-45934108D01*
X234500500Y-45934108D01*
X234466392Y-45806814D01*
X234400500Y-45692686D01*
X234307314Y-45599500D01*
X234250250Y-45566554D01*
X234193187Y-45533608D01*
X234129539Y-45516554D01*
X234065892Y-45499500D01*
X233934108Y-45499500D01*
X233806812Y-45533608D01*
X233692686Y-45599500D01*
X233692683Y-45599502D01*
X233599502Y-45692683D01*
X233599500Y-45692686D01*
X233533608Y-45806812D01*
X233499500Y-45934108D01*
X221513843Y-45934108D01*
X221274631Y-45740460D01*
X220706387Y-45280453D01*
X220696727Y-45271756D01*
X220531819Y-45106848D01*
X220498334Y-45045525D01*
X220495500Y-45019167D01*
X220495500Y-44700876D01*
X220499725Y-44668783D01*
X220499737Y-44668738D01*
X220500500Y-44665892D01*
X220500500Y-44534108D01*
X220499723Y-44531209D01*
X220495500Y-44499124D01*
X220495500Y-44168055D01*
X220491410Y-44147496D01*
X220491409Y-44147494D01*
X220491409Y-44147492D01*
X220475828Y-44124172D01*
X220452508Y-44108591D01*
X220452503Y-44108589D01*
X220431944Y-44104500D01*
X220431942Y-44104500D01*
X220084552Y-44104500D01*
X220065892Y-44099500D01*
X219934108Y-44099500D01*
X219915448Y-44104500D01*
X219568058Y-44104500D01*
X219568056Y-44104500D01*
X219547496Y-44108589D01*
X219547491Y-44108591D01*
X219524172Y-44124172D01*
X219508589Y-44147495D01*
X219505421Y-44155143D01*
X219461578Y-44209545D01*
X219395284Y-44231607D01*
X219327585Y-44214326D01*
X219314174Y-44203907D01*
X219313760Y-44204447D01*
X219307316Y-44199502D01*
X219307314Y-44199500D01*
X219217241Y-44147496D01*
X219193187Y-44133608D01*
X219099820Y-44108591D01*
X219065892Y-44099500D01*
X218934108Y-44099500D01*
X218806812Y-44133608D01*
X218692686Y-44199500D01*
X218692683Y-44199502D01*
X218599498Y-44292687D01*
X218598370Y-44294158D01*
X218597102Y-44295083D01*
X218593753Y-44298433D01*
X218593230Y-44297910D01*
X218541940Y-44335356D01*
X218472193Y-44339506D01*
X218411275Y-44305289D01*
X218401630Y-44294158D01*
X218400501Y-44292687D01*
X218307316Y-44199502D01*
X218307314Y-44199500D01*
X218217241Y-44147496D01*
X218193187Y-44133608D01*
X218099820Y-44108591D01*
X218065892Y-44099500D01*
X217934108Y-44099500D01*
X217806812Y-44133608D01*
X217692686Y-44199500D01*
X217692683Y-44199502D01*
X217599502Y-44292683D01*
X217599498Y-44292689D01*
X217529545Y-44413851D01*
X217529016Y-44413545D01*
X217506882Y-44446670D01*
X217353553Y-44599999D01*
X217250000Y-44599999D01*
X217250000Y-44550272D01*
X217211940Y-44458386D01*
X217141614Y-44388060D01*
X217049728Y-44350000D01*
X216950272Y-44350000D01*
X216858386Y-44388060D01*
X216788060Y-44458386D01*
X216750000Y-44550272D01*
X216596719Y-44550272D01*
X216191498Y-44145050D01*
X216180274Y-44161848D01*
X216110547Y-44330186D01*
X216110545Y-44330194D01*
X216075000Y-44508890D01*
X206156471Y-44508890D01*
X206167930Y-44334063D01*
X206170045Y-44317996D01*
X206220455Y-44064569D01*
X206224646Y-44048926D01*
X206307705Y-43804242D01*
X206312983Y-43791498D01*
X216545050Y-43791498D01*
X217000000Y-44246446D01*
X217000001Y-44246446D01*
X217312338Y-43934108D01*
X233499500Y-43934108D01*
X233499500Y-44065891D01*
X233533608Y-44193187D01*
X233545813Y-44214326D01*
X233599500Y-44307314D01*
X233692686Y-44400500D01*
X233806814Y-44466392D01*
X233934108Y-44500500D01*
X233934110Y-44500500D01*
X234065890Y-44500500D01*
X234065892Y-44500500D01*
X234193186Y-44466392D01*
X234307314Y-44400500D01*
X234400500Y-44307314D01*
X234466392Y-44193186D01*
X234500500Y-44065892D01*
X234500500Y-43934108D01*
X235499500Y-43934108D01*
X235499500Y-44065891D01*
X235533608Y-44193187D01*
X235545813Y-44214326D01*
X235599500Y-44307314D01*
X235692686Y-44400500D01*
X235806814Y-44466392D01*
X235934108Y-44500500D01*
X235934110Y-44500500D01*
X236065890Y-44500500D01*
X236065892Y-44500500D01*
X236193186Y-44466392D01*
X236307314Y-44400500D01*
X236400500Y-44307314D01*
X236466392Y-44193186D01*
X236500500Y-44065892D01*
X236500500Y-43934108D01*
X237499500Y-43934108D01*
X237499500Y-44065891D01*
X237533608Y-44193187D01*
X237545813Y-44214326D01*
X237599500Y-44307314D01*
X237692686Y-44400500D01*
X237806814Y-44466392D01*
X237934108Y-44500500D01*
X237934110Y-44500500D01*
X238065890Y-44500500D01*
X238065892Y-44500500D01*
X238193186Y-44466392D01*
X238307314Y-44400500D01*
X238400500Y-44307314D01*
X238466392Y-44193186D01*
X238500500Y-44065892D01*
X238500500Y-43934108D01*
X238466392Y-43806814D01*
X238400500Y-43692686D01*
X238307314Y-43599500D01*
X238234636Y-43557539D01*
X238193187Y-43533608D01*
X238129539Y-43516554D01*
X238065892Y-43499500D01*
X237934108Y-43499500D01*
X237806812Y-43533608D01*
X237692686Y-43599500D01*
X237692683Y-43599502D01*
X237599502Y-43692683D01*
X237599500Y-43692686D01*
X237533608Y-43806812D01*
X237499500Y-43934108D01*
X236500500Y-43934108D01*
X236466392Y-43806814D01*
X236400500Y-43692686D01*
X236307314Y-43599500D01*
X236234636Y-43557539D01*
X236193187Y-43533608D01*
X236129539Y-43516554D01*
X236065892Y-43499500D01*
X235934108Y-43499500D01*
X235806812Y-43533608D01*
X235692686Y-43599500D01*
X235692683Y-43599502D01*
X235599502Y-43692683D01*
X235599500Y-43692686D01*
X235533608Y-43806812D01*
X235499500Y-43934108D01*
X234500500Y-43934108D01*
X234466392Y-43806814D01*
X234400500Y-43692686D01*
X234307314Y-43599500D01*
X234234636Y-43557539D01*
X234193187Y-43533608D01*
X234129539Y-43516554D01*
X234065892Y-43499500D01*
X233934108Y-43499500D01*
X233806812Y-43533608D01*
X233692686Y-43599500D01*
X233692683Y-43599502D01*
X233599502Y-43692683D01*
X233599500Y-43692686D01*
X233533608Y-43806812D01*
X233499500Y-43934108D01*
X217312338Y-43934108D01*
X217408146Y-43838300D01*
X217454947Y-43791498D01*
X217438145Y-43780271D01*
X217269817Y-43710548D01*
X217269805Y-43710545D01*
X217091109Y-43675000D01*
X216908890Y-43675000D01*
X216730194Y-43710545D01*
X216730186Y-43710547D01*
X216561848Y-43780274D01*
X216545050Y-43791498D01*
X206312983Y-43791498D01*
X206313903Y-43789278D01*
X206428188Y-43557533D01*
X206436295Y-43543493D01*
X206579839Y-43328663D01*
X206589704Y-43315804D01*
X206760075Y-43121533D01*
X206771533Y-43110075D01*
X206965804Y-42939704D01*
X206978658Y-42929842D01*
X207193493Y-42786295D01*
X207207533Y-42778188D01*
X207439276Y-42663905D01*
X207454242Y-42657705D01*
X207698926Y-42574646D01*
X207714569Y-42570455D01*
X207967996Y-42520045D01*
X207984048Y-42517931D01*
X208245971Y-42500764D01*
X208254052Y-42500500D01*
X208315892Y-42500500D01*
X242234108Y-42500500D01*
X242295948Y-42500500D01*
X242304028Y-42500764D01*
G37*
%TD.AperFunction*%
%TD*%
M02*
