%TF.GenerationSoftware,KiCad,Pcbnew,9.0.5*%
%TF.CreationDate,2026-03-30T09:30:45+02:00*%
%TF.ProjectId,pcb_drumled,7063625f-6472-4756-9d6c-65642e6b6963,rev?*%
%TF.SameCoordinates,Original*%
%TF.FileFunction,Soldermask,Top*%
%TF.FilePolarity,Negative*%
%FSLAX46Y46*%
G04 Gerber Fmt 4.6, Leading zero omitted, Abs format (unit mm)*
G04 Created by KiCad (PCBNEW 9.0.5) date 2026-03-30 09:30:45*
%MOMM*%
%LPD*%
G01*
G04 APERTURE LIST*
G04 Aperture macros list*
%AMRoundRect*
0 Rectangle with rounded corners*
0 $1 Rounding radius*
0 $2 $3 $4 $5 $6 $7 $8 $9 X,Y pos of 4 corners*
0 Add a 4 corners polygon primitive as box body*
4,1,4,$2,$3,$4,$5,$6,$7,$8,$9,$2,$3,0*
0 Add four circle primitives for the rounded corners*
1,1,$1+$1,$2,$3*
1,1,$1+$1,$4,$5*
1,1,$1+$1,$6,$7*
1,1,$1+$1,$8,$9*
0 Add four rect primitives between the rounded corners*
20,1,$1+$1,$2,$3,$4,$5,0*
20,1,$1+$1,$4,$5,$6,$7,0*
20,1,$1+$1,$6,$7,$8,$9,0*
20,1,$1+$1,$8,$9,$2,$3,0*%
G04 Aperture macros list end*
%ADD10R,0.850000X0.850000*%
%ADD11C,0.850000*%
%ADD12RoundRect,0.225000X-0.250000X0.225000X-0.250000X-0.225000X0.250000X-0.225000X0.250000X0.225000X0*%
%ADD13RoundRect,0.200000X-0.200000X-0.275000X0.200000X-0.275000X0.200000X0.275000X-0.200000X0.275000X0*%
%ADD14RoundRect,0.375000X-0.375000X0.625000X-0.375000X-0.625000X0.375000X-0.625000X0.375000X0.625000X0*%
%ADD15RoundRect,0.500000X-1.400000X0.500000X-1.400000X-0.500000X1.400000X-0.500000X1.400000X0.500000X0*%
%ADD16C,4.400000*%
%ADD17RoundRect,0.194310X-0.586740X-0.453390X0.586740X-0.453390X0.586740X0.453390X-0.586740X0.453390X0*%
%ADD18RoundRect,0.198119X-0.582931X-0.462278X0.582931X-0.462278X0.582931X0.462278X-0.582931X0.462278X0*%
%ADD19RoundRect,0.198120X-0.582930X-0.462280X0.582930X-0.462280X0.582930X0.462280X-0.582930X0.462280X0*%
%ADD20RoundRect,0.196324X-0.591069X-0.458090X0.591069X-0.458090X0.591069X0.458090X-0.591069X0.458090X0*%
%ADD21RoundRect,0.225000X0.250000X-0.225000X0.250000X0.225000X-0.250000X0.225000X-0.250000X-0.225000X0*%
%ADD22RoundRect,0.225000X0.225000X0.250000X-0.225000X0.250000X-0.225000X-0.250000X0.225000X-0.250000X0*%
%ADD23RoundRect,0.125000X-0.625000X-0.125000X0.625000X-0.125000X0.625000X0.125000X-0.625000X0.125000X0*%
%ADD24RoundRect,0.125000X-0.125000X-0.625000X0.125000X-0.625000X0.125000X0.625000X-0.125000X0.625000X0*%
%ADD25RoundRect,0.250000X0.600000X0.750000X-0.600000X0.750000X-0.600000X-0.750000X0.600000X-0.750000X0*%
%ADD26O,1.700000X2.000000*%
%ADD27C,2.979000*%
%ADD28RoundRect,0.200000X0.275000X-0.200000X0.275000X0.200000X-0.275000X0.200000X-0.275000X-0.200000X0*%
%ADD29R,0.740000X2.400000*%
%ADD30RoundRect,0.250000X-0.725000X0.600000X-0.725000X-0.600000X0.725000X-0.600000X0.725000X0.600000X0*%
%ADD31O,1.950000X1.700000*%
%ADD32RoundRect,0.200000X0.200000X0.275000X-0.200000X0.275000X-0.200000X-0.275000X0.200000X-0.275000X0*%
%ADD33RoundRect,0.200312X0.574388X0.467396X-0.574388X0.467396X-0.574388X-0.467396X0.574388X-0.467396X0*%
G04 APERTURE END LIST*
D10*
%TO.C,connecteur_capteur1*%
X220000000Y-44600000D03*
D11*
X219000000Y-44600000D03*
X218000000Y-44600000D03*
X217000000Y-44600000D03*
%TD*%
D12*
%TO.C,C2*%
X230000000Y-61225000D03*
X230000000Y-62775000D03*
%TD*%
D13*
%TO.C,R1*%
X231175000Y-57500000D03*
X232825000Y-57500000D03*
%TD*%
D14*
%TO.C,regulateur_vers_3.3V1*%
X231900000Y-65450000D03*
X229600000Y-65450000D03*
D15*
X229600000Y-71750000D03*
D14*
X227300000Y-65450000D03*
%TD*%
D16*
%TO.C,H2*%
X208788000Y-71120000D03*
%TD*%
D17*
%TO.C,reset1*%
X234800000Y-51291500D03*
D18*
X242750200Y-51278797D03*
D19*
X234800000Y-55800000D03*
D20*
X242743843Y-55794014D03*
%TD*%
D21*
%TO.C,C4*%
X234188000Y-68580000D03*
X234188000Y-67030000D03*
%TD*%
D22*
%TO.C,C1*%
X228359000Y-62738000D03*
X226809000Y-62738000D03*
%TD*%
D23*
%TO.C,U1*%
X220825000Y-54025000D03*
X220825000Y-54825000D03*
X220825000Y-55625000D03*
X220825000Y-56425000D03*
X220825000Y-57225000D03*
X220825000Y-58025000D03*
X220825000Y-58825000D03*
X220825000Y-59625000D03*
D24*
X222200000Y-61000000D03*
X223000000Y-61000000D03*
X223800000Y-61000000D03*
X224600000Y-61000000D03*
X225400000Y-61000000D03*
X226200000Y-61000000D03*
X227000000Y-61000000D03*
X227800000Y-61000000D03*
D23*
X229175000Y-59625000D03*
X229175000Y-58825000D03*
X229175000Y-58025000D03*
X229175000Y-57225000D03*
X229175000Y-56425000D03*
X229175000Y-55625000D03*
X229175000Y-54825000D03*
X229175000Y-54025000D03*
D24*
X227800000Y-52650000D03*
X227000000Y-52650000D03*
X226200000Y-52650000D03*
X225400000Y-52650000D03*
X224600000Y-52650000D03*
X223800000Y-52650000D03*
X223000000Y-52650000D03*
X222200000Y-52650000D03*
%TD*%
D25*
%TO.C,connecteur_batterie1*%
X222300000Y-68600000D03*
D26*
X219800000Y-68600000D03*
%TD*%
D27*
%TO.C,switch_on_off1*%
X212600000Y-65800000D03*
X212600000Y-61100000D03*
X212600000Y-56400000D03*
%TD*%
D16*
%TO.C,H5*%
X241808000Y-71120000D03*
%TD*%
D28*
%TO.C,R3*%
X239715016Y-49950000D03*
X239715016Y-48300000D03*
%TD*%
D16*
%TO.C,H3*%
X241808000Y-45212000D03*
%TD*%
D13*
%TO.C,R7*%
X231175000Y-59500000D03*
X232825000Y-59500000D03*
%TD*%
D29*
%TO.C,J2*%
X232010000Y-45050000D03*
X232010000Y-48950000D03*
X230740000Y-45050000D03*
X230740000Y-48950000D03*
X229470000Y-45050000D03*
X229470000Y-48950000D03*
X228200000Y-45050000D03*
X228200000Y-48950000D03*
X226930000Y-45050000D03*
X226930000Y-48950000D03*
X225660000Y-45050000D03*
X225660000Y-48950000D03*
X224390000Y-45050000D03*
X224390000Y-48950000D03*
%TD*%
D12*
%TO.C,C3*%
X220500000Y-50725000D03*
X220500000Y-52275000D03*
%TD*%
D16*
%TO.C,H1*%
X208788000Y-45212000D03*
%TD*%
D30*
%TO.C,rgb_neopix1*%
X236400000Y-59500000D03*
D31*
X236400000Y-62000000D03*
X236400000Y-64500000D03*
%TD*%
D32*
%TO.C,R4*%
X218825000Y-56600000D03*
X217175000Y-56600000D03*
%TD*%
D28*
%TO.C,R5*%
X222200000Y-50425000D03*
X222200000Y-48775000D03*
%TD*%
D32*
%TO.C,R2*%
X218825000Y-55000000D03*
X217175000Y-55000000D03*
%TD*%
D33*
%TO.C,bouton_couleur1*%
X218277500Y-52961922D03*
X210340000Y-52980000D03*
X218264800Y-48458800D03*
X210340000Y-48458800D03*
%TD*%
M02*
