%TF.GenerationSoftware,KiCad,Pcbnew,9.0.5*%
%TF.CreationDate,2026-03-30T09:30:45+02:00*%
%TF.ProjectId,pcb_drumled,7063625f-6472-4756-9d6c-65642e6b6963,rev?*%
%TF.SameCoordinates,Original*%
%TF.FileFunction,Legend,Top*%
%TF.FilePolarity,Positive*%
%FSLAX46Y46*%
G04 Gerber Fmt 4.6, Leading zero omitted, Abs format (unit mm)*
G04 Created by KiCad (PCBNEW 9.0.5) date 2026-03-30 09:30:45*
%MOMM*%
%LPD*%
G01*
G04 APERTURE LIST*
%ADD10C,0.120000*%
%ADD11C,0.200000*%
%ADD12C,0.400000*%
G04 APERTURE END LIST*
D10*
X231421804Y-53920331D02*
X231421804Y-53520331D01*
X231421804Y-53634617D02*
X231450375Y-53577474D01*
X231450375Y-53577474D02*
X231478947Y-53548902D01*
X231478947Y-53548902D02*
X231536089Y-53520331D01*
X231536089Y-53520331D02*
X231593232Y-53520331D01*
X232021804Y-53891760D02*
X231964661Y-53920331D01*
X231964661Y-53920331D02*
X231850376Y-53920331D01*
X231850376Y-53920331D02*
X231793233Y-53891760D01*
X231793233Y-53891760D02*
X231764661Y-53834617D01*
X231764661Y-53834617D02*
X231764661Y-53606045D01*
X231764661Y-53606045D02*
X231793233Y-53548902D01*
X231793233Y-53548902D02*
X231850376Y-53520331D01*
X231850376Y-53520331D02*
X231964661Y-53520331D01*
X231964661Y-53520331D02*
X232021804Y-53548902D01*
X232021804Y-53548902D02*
X232050376Y-53606045D01*
X232050376Y-53606045D02*
X232050376Y-53663188D01*
X232050376Y-53663188D02*
X231764661Y-53720331D01*
X232278947Y-53891760D02*
X232336090Y-53920331D01*
X232336090Y-53920331D02*
X232450376Y-53920331D01*
X232450376Y-53920331D02*
X232507519Y-53891760D01*
X232507519Y-53891760D02*
X232536090Y-53834617D01*
X232536090Y-53834617D02*
X232536090Y-53806045D01*
X232536090Y-53806045D02*
X232507519Y-53748902D01*
X232507519Y-53748902D02*
X232450376Y-53720331D01*
X232450376Y-53720331D02*
X232364662Y-53720331D01*
X232364662Y-53720331D02*
X232307519Y-53691760D01*
X232307519Y-53691760D02*
X232278947Y-53634617D01*
X232278947Y-53634617D02*
X232278947Y-53606045D01*
X232278947Y-53606045D02*
X232307519Y-53548902D01*
X232307519Y-53548902D02*
X232364662Y-53520331D01*
X232364662Y-53520331D02*
X232450376Y-53520331D01*
X232450376Y-53520331D02*
X232507519Y-53548902D01*
X233021804Y-53891760D02*
X232964661Y-53920331D01*
X232964661Y-53920331D02*
X232850376Y-53920331D01*
X232850376Y-53920331D02*
X232793233Y-53891760D01*
X232793233Y-53891760D02*
X232764661Y-53834617D01*
X232764661Y-53834617D02*
X232764661Y-53606045D01*
X232764661Y-53606045D02*
X232793233Y-53548902D01*
X232793233Y-53548902D02*
X232850376Y-53520331D01*
X232850376Y-53520331D02*
X232964661Y-53520331D01*
X232964661Y-53520331D02*
X233021804Y-53548902D01*
X233021804Y-53548902D02*
X233050376Y-53606045D01*
X233050376Y-53606045D02*
X233050376Y-53663188D01*
X233050376Y-53663188D02*
X232764661Y-53720331D01*
X233221804Y-53520331D02*
X233450376Y-53520331D01*
X233307519Y-53320331D02*
X233307519Y-53834617D01*
X233307519Y-53834617D02*
X233336090Y-53891760D01*
X233336090Y-53891760D02*
X233393233Y-53920331D01*
X233393233Y-53920331D02*
X233450376Y-53920331D01*
X213213461Y-47107188D02*
X213184889Y-47135760D01*
X213184889Y-47135760D02*
X213099175Y-47164331D01*
X213099175Y-47164331D02*
X213042032Y-47164331D01*
X213042032Y-47164331D02*
X212956318Y-47135760D01*
X212956318Y-47135760D02*
X212899175Y-47078617D01*
X212899175Y-47078617D02*
X212870604Y-47021474D01*
X212870604Y-47021474D02*
X212842032Y-46907188D01*
X212842032Y-46907188D02*
X212842032Y-46821474D01*
X212842032Y-46821474D02*
X212870604Y-46707188D01*
X212870604Y-46707188D02*
X212899175Y-46650045D01*
X212899175Y-46650045D02*
X212956318Y-46592902D01*
X212956318Y-46592902D02*
X213042032Y-46564331D01*
X213042032Y-46564331D02*
X213099175Y-46564331D01*
X213099175Y-46564331D02*
X213184889Y-46592902D01*
X213184889Y-46592902D02*
X213213461Y-46621474D01*
X213556318Y-47164331D02*
X213499175Y-47135760D01*
X213499175Y-47135760D02*
X213470604Y-47107188D01*
X213470604Y-47107188D02*
X213442032Y-47050045D01*
X213442032Y-47050045D02*
X213442032Y-46878617D01*
X213442032Y-46878617D02*
X213470604Y-46821474D01*
X213470604Y-46821474D02*
X213499175Y-46792902D01*
X213499175Y-46792902D02*
X213556318Y-46764331D01*
X213556318Y-46764331D02*
X213642032Y-46764331D01*
X213642032Y-46764331D02*
X213699175Y-46792902D01*
X213699175Y-46792902D02*
X213727747Y-46821474D01*
X213727747Y-46821474D02*
X213756318Y-46878617D01*
X213756318Y-46878617D02*
X213756318Y-47050045D01*
X213756318Y-47050045D02*
X213727747Y-47107188D01*
X213727747Y-47107188D02*
X213699175Y-47135760D01*
X213699175Y-47135760D02*
X213642032Y-47164331D01*
X213642032Y-47164331D02*
X213556318Y-47164331D01*
X214270604Y-46764331D02*
X214270604Y-47164331D01*
X214013461Y-46764331D02*
X214013461Y-47078617D01*
X214013461Y-47078617D02*
X214042032Y-47135760D01*
X214042032Y-47135760D02*
X214099175Y-47164331D01*
X214099175Y-47164331D02*
X214184889Y-47164331D01*
X214184889Y-47164331D02*
X214242032Y-47135760D01*
X214242032Y-47135760D02*
X214270604Y-47107188D01*
X214642032Y-47164331D02*
X214584889Y-47135760D01*
X214584889Y-47135760D02*
X214556318Y-47078617D01*
X214556318Y-47078617D02*
X214556318Y-46564331D01*
X215099175Y-47135760D02*
X215042032Y-47164331D01*
X215042032Y-47164331D02*
X214927747Y-47164331D01*
X214927747Y-47164331D02*
X214870604Y-47135760D01*
X214870604Y-47135760D02*
X214842032Y-47078617D01*
X214842032Y-47078617D02*
X214842032Y-46850045D01*
X214842032Y-46850045D02*
X214870604Y-46792902D01*
X214870604Y-46792902D02*
X214927747Y-46764331D01*
X214927747Y-46764331D02*
X215042032Y-46764331D01*
X215042032Y-46764331D02*
X215099175Y-46792902D01*
X215099175Y-46792902D02*
X215127747Y-46850045D01*
X215127747Y-46850045D02*
X215127747Y-46907188D01*
X215127747Y-46907188D02*
X214842032Y-46964331D01*
X215642033Y-46764331D02*
X215642033Y-47164331D01*
X215384890Y-46764331D02*
X215384890Y-47078617D01*
X215384890Y-47078617D02*
X215413461Y-47135760D01*
X215413461Y-47135760D02*
X215470604Y-47164331D01*
X215470604Y-47164331D02*
X215556318Y-47164331D01*
X215556318Y-47164331D02*
X215613461Y-47135760D01*
X215613461Y-47135760D02*
X215642033Y-47107188D01*
X215927747Y-47164331D02*
X215927747Y-46764331D01*
X215927747Y-46878617D02*
X215956318Y-46821474D01*
X215956318Y-46821474D02*
X215984890Y-46792902D01*
X215984890Y-46792902D02*
X216042032Y-46764331D01*
X216042032Y-46764331D02*
X216099175Y-46764331D01*
X217221804Y-72920331D02*
X217221804Y-72320331D01*
X217221804Y-72320331D02*
X217364661Y-72320331D01*
X217364661Y-72320331D02*
X217450375Y-72348902D01*
X217450375Y-72348902D02*
X217507518Y-72406045D01*
X217507518Y-72406045D02*
X217536089Y-72463188D01*
X217536089Y-72463188D02*
X217564661Y-72577474D01*
X217564661Y-72577474D02*
X217564661Y-72663188D01*
X217564661Y-72663188D02*
X217536089Y-72777474D01*
X217536089Y-72777474D02*
X217507518Y-72834617D01*
X217507518Y-72834617D02*
X217450375Y-72891760D01*
X217450375Y-72891760D02*
X217364661Y-72920331D01*
X217364661Y-72920331D02*
X217221804Y-72920331D01*
X217821804Y-72920331D02*
X217821804Y-72520331D01*
X217821804Y-72634617D02*
X217850375Y-72577474D01*
X217850375Y-72577474D02*
X217878947Y-72548902D01*
X217878947Y-72548902D02*
X217936089Y-72520331D01*
X217936089Y-72520331D02*
X217993232Y-72520331D01*
X218450376Y-72520331D02*
X218450376Y-72920331D01*
X218193233Y-72520331D02*
X218193233Y-72834617D01*
X218193233Y-72834617D02*
X218221804Y-72891760D01*
X218221804Y-72891760D02*
X218278947Y-72920331D01*
X218278947Y-72920331D02*
X218364661Y-72920331D01*
X218364661Y-72920331D02*
X218421804Y-72891760D01*
X218421804Y-72891760D02*
X218450376Y-72863188D01*
X218736090Y-72920331D02*
X218736090Y-72520331D01*
X218736090Y-72577474D02*
X218764661Y-72548902D01*
X218764661Y-72548902D02*
X218821804Y-72520331D01*
X218821804Y-72520331D02*
X218907518Y-72520331D01*
X218907518Y-72520331D02*
X218964661Y-72548902D01*
X218964661Y-72548902D02*
X218993233Y-72606045D01*
X218993233Y-72606045D02*
X218993233Y-72920331D01*
X218993233Y-72606045D02*
X219021804Y-72548902D01*
X219021804Y-72548902D02*
X219078947Y-72520331D01*
X219078947Y-72520331D02*
X219164661Y-72520331D01*
X219164661Y-72520331D02*
X219221804Y-72548902D01*
X219221804Y-72548902D02*
X219250375Y-72606045D01*
X219250375Y-72606045D02*
X219250375Y-72920331D01*
X219621804Y-72920331D02*
X219564661Y-72891760D01*
X219564661Y-72891760D02*
X219536090Y-72834617D01*
X219536090Y-72834617D02*
X219536090Y-72320331D01*
X220078947Y-72891760D02*
X220021804Y-72920331D01*
X220021804Y-72920331D02*
X219907519Y-72920331D01*
X219907519Y-72920331D02*
X219850376Y-72891760D01*
X219850376Y-72891760D02*
X219821804Y-72834617D01*
X219821804Y-72834617D02*
X219821804Y-72606045D01*
X219821804Y-72606045D02*
X219850376Y-72548902D01*
X219850376Y-72548902D02*
X219907519Y-72520331D01*
X219907519Y-72520331D02*
X220021804Y-72520331D01*
X220021804Y-72520331D02*
X220078947Y-72548902D01*
X220078947Y-72548902D02*
X220107519Y-72606045D01*
X220107519Y-72606045D02*
X220107519Y-72663188D01*
X220107519Y-72663188D02*
X219821804Y-72720331D01*
X220621805Y-72920331D02*
X220621805Y-72320331D01*
X220621805Y-72891760D02*
X220564662Y-72920331D01*
X220564662Y-72920331D02*
X220450376Y-72920331D01*
X220450376Y-72920331D02*
X220393233Y-72891760D01*
X220393233Y-72891760D02*
X220364662Y-72863188D01*
X220364662Y-72863188D02*
X220336090Y-72806045D01*
X220336090Y-72806045D02*
X220336090Y-72634617D01*
X220336090Y-72634617D02*
X220364662Y-72577474D01*
X220364662Y-72577474D02*
X220393233Y-72548902D01*
X220393233Y-72548902D02*
X220450376Y-72520331D01*
X220450376Y-72520331D02*
X220564662Y-72520331D01*
X220564662Y-72520331D02*
X220621805Y-72548902D01*
X216736089Y-58520331D02*
X216850375Y-58520331D01*
X216850375Y-58520331D02*
X216907518Y-58548902D01*
X216907518Y-58548902D02*
X216964661Y-58606045D01*
X216964661Y-58606045D02*
X216993232Y-58720331D01*
X216993232Y-58720331D02*
X216993232Y-58920331D01*
X216993232Y-58920331D02*
X216964661Y-59034617D01*
X216964661Y-59034617D02*
X216907518Y-59091760D01*
X216907518Y-59091760D02*
X216850375Y-59120331D01*
X216850375Y-59120331D02*
X216736089Y-59120331D01*
X216736089Y-59120331D02*
X216678947Y-59091760D01*
X216678947Y-59091760D02*
X216621804Y-59034617D01*
X216621804Y-59034617D02*
X216593232Y-58920331D01*
X216593232Y-58920331D02*
X216593232Y-58720331D01*
X216593232Y-58720331D02*
X216621804Y-58606045D01*
X216621804Y-58606045D02*
X216678947Y-58548902D01*
X216678947Y-58548902D02*
X216736089Y-58520331D01*
X217250375Y-59120331D02*
X217250375Y-58520331D01*
X217250375Y-58520331D02*
X217593232Y-59120331D01*
X217593232Y-59120331D02*
X217593232Y-58520331D01*
X216836089Y-63320331D02*
X216950375Y-63320331D01*
X216950375Y-63320331D02*
X217007518Y-63348902D01*
X217007518Y-63348902D02*
X217064661Y-63406045D01*
X217064661Y-63406045D02*
X217093232Y-63520331D01*
X217093232Y-63520331D02*
X217093232Y-63720331D01*
X217093232Y-63720331D02*
X217064661Y-63834617D01*
X217064661Y-63834617D02*
X217007518Y-63891760D01*
X217007518Y-63891760D02*
X216950375Y-63920331D01*
X216950375Y-63920331D02*
X216836089Y-63920331D01*
X216836089Y-63920331D02*
X216778947Y-63891760D01*
X216778947Y-63891760D02*
X216721804Y-63834617D01*
X216721804Y-63834617D02*
X216693232Y-63720331D01*
X216693232Y-63720331D02*
X216693232Y-63520331D01*
X216693232Y-63520331D02*
X216721804Y-63406045D01*
X216721804Y-63406045D02*
X216778947Y-63348902D01*
X216778947Y-63348902D02*
X216836089Y-63320331D01*
X217550375Y-63606045D02*
X217350375Y-63606045D01*
X217350375Y-63920331D02*
X217350375Y-63320331D01*
X217350375Y-63320331D02*
X217636089Y-63320331D01*
X218064661Y-63606045D02*
X217864661Y-63606045D01*
X217864661Y-63920331D02*
X217864661Y-63320331D01*
X217864661Y-63320331D02*
X218150375Y-63320331D01*
%TO.C,connecteur_capteur1*%
X220735000Y-43855000D02*
X220735000Y-44600000D01*
X220000000Y-43855000D02*
X220735000Y-43855000D01*
X219265000Y-43855000D02*
X216390000Y-43855000D01*
X219265000Y-43855000D02*
X219265000Y-43914435D01*
X216390000Y-43855000D02*
X216390000Y-44189970D01*
X216390000Y-45010030D02*
X216390000Y-45345000D01*
X219265000Y-45285565D02*
X219265000Y-45345000D01*
X219265000Y-45345000D02*
X216390000Y-45345000D01*
%TO.C,C2*%
X229490000Y-61859420D02*
X229490000Y-62140580D01*
X230510000Y-61859420D02*
X230510000Y-62140580D01*
%TO.C,R1*%
X231762742Y-56977500D02*
X232237258Y-56977500D01*
X231762742Y-58022500D02*
X232237258Y-58022500D01*
%TO.C,regulateur_vers_3.3V1*%
X226190000Y-66750000D02*
X226190000Y-70510000D01*
X226190000Y-70510000D02*
X227450000Y-70510000D01*
X233010000Y-66750000D02*
X233010000Y-70510000D01*
X233010000Y-70510000D02*
X231750000Y-70510000D01*
X233240000Y-65710000D02*
X232910000Y-65470000D01*
X233240000Y-65230000D01*
X233240000Y-65710000D01*
G36*
X233240000Y-65710000D02*
G01*
X232910000Y-65470000D01*
X233240000Y-65230000D01*
X233240000Y-65710000D01*
G37*
%TO.C,C4*%
X234698000Y-67945580D02*
X234698000Y-67664420D01*
X233678000Y-67945580D02*
X233678000Y-67664420D01*
%TO.C,C1*%
X227724580Y-62228000D02*
X227443420Y-62228000D01*
X227724580Y-63248000D02*
X227443420Y-63248000D01*
%TO.C,U1*%
X221390000Y-53215000D02*
X221690000Y-53215000D01*
X221390000Y-53515000D02*
X221390000Y-53215000D01*
X221390000Y-60435000D02*
X221390000Y-60135000D01*
X221690000Y-60435000D02*
X221390000Y-60435000D01*
X228310000Y-53215000D02*
X228610000Y-53215000D01*
X228610000Y-53215000D02*
X228610000Y-53515000D01*
X228610000Y-60135000D02*
X228610000Y-60435000D01*
X228610000Y-60435000D02*
X228310000Y-60435000D01*
X220750000Y-53505000D02*
X220410000Y-53035000D01*
X221090000Y-53035000D01*
X220750000Y-53505000D01*
G36*
X220750000Y-53505000D02*
G01*
X220410000Y-53035000D01*
X221090000Y-53035000D01*
X220750000Y-53505000D01*
G37*
%TO.C,connecteur_batterie1*%
X217190000Y-66290000D02*
X217190000Y-70310000D01*
X217190000Y-67790000D02*
X218190000Y-67790000D01*
X217190000Y-70310000D02*
X224910000Y-70310000D01*
X217690000Y-68600000D02*
X217190000Y-68600000D01*
X217690000Y-69810000D02*
X217690000Y-68600000D01*
X218190000Y-67790000D02*
X218190000Y-66290000D01*
X223910000Y-67790000D02*
X223910000Y-66290000D01*
X224410000Y-68600000D02*
X224410000Y-69810000D01*
X224410000Y-69810000D02*
X217690000Y-69810000D01*
X224910000Y-66290000D02*
X217190000Y-66290000D01*
X224910000Y-67790000D02*
X223910000Y-67790000D01*
X224910000Y-68600000D02*
X224410000Y-68600000D01*
X224910000Y-70310000D02*
X224910000Y-66290000D01*
X225210000Y-65990000D02*
X222710000Y-65990000D01*
X225210000Y-68490000D02*
X225210000Y-65990000D01*
D11*
%TO.C,switch_on_off1*%
X209200000Y-54650000D02*
X216000000Y-54650000D01*
X209200000Y-67550000D02*
X209200000Y-54650000D01*
X216000000Y-54650000D02*
X216000000Y-67550000D01*
X216000000Y-67550000D02*
X209200000Y-67550000D01*
D12*
X214800000Y-68600000D02*
G75*
G02*
X214400000Y-68600000I-200000J0D01*
G01*
X214400000Y-68600000D02*
G75*
G02*
X214800000Y-68600000I200000J0D01*
G01*
D10*
%TO.C,R3*%
X239192516Y-49362258D02*
X239192516Y-48887742D01*
X240237516Y-49362258D02*
X240237516Y-48887742D01*
%TO.C,R7*%
X231762742Y-58977500D02*
X232237258Y-58977500D01*
X231762742Y-60022500D02*
X232237258Y-60022500D01*
%TO.C,J2*%
X223645000Y-45185000D02*
X223645000Y-48815000D01*
X223710000Y-45185000D02*
X223645000Y-45185000D01*
X223710000Y-48815000D02*
X223645000Y-48815000D01*
X232690000Y-43910000D02*
X232690000Y-45185000D01*
X232755000Y-45185000D02*
X232690000Y-45185000D01*
X232755000Y-45185000D02*
X232755000Y-48815000D01*
X232755000Y-48815000D02*
X232690000Y-48815000D01*
%TO.C,C3*%
X219990000Y-51359420D02*
X219990000Y-51640580D01*
X221010000Y-51359420D02*
X221010000Y-51640580D01*
%TO.C,R4*%
X218237258Y-56077500D02*
X217762742Y-56077500D01*
X218237258Y-57122500D02*
X217762742Y-57122500D01*
%TO.C,R5*%
X221677500Y-49837258D02*
X221677500Y-49362742D01*
X222722500Y-49837258D02*
X222722500Y-49362742D01*
%TO.C,R2*%
X218237258Y-54477500D02*
X217762742Y-54477500D01*
X218237258Y-55522500D02*
X217762742Y-55522500D01*
%TD*%
M02*
