M48
; DRILL file {KiCad 9.0.5} date 2026-03-30T09:30:35+0200
; FORMAT={-:-/ absolute / metric / decimal}
; #@! TF.CreationDate,2026-03-30T09:30:35+02:00
; #@! TF.GenerationSoftware,Kicad,Pcbnew,9.0.5
; #@! TF.FileFunction,Plated,1,2,PTH
FMAT,2
METRIC
; #@! TA.AperFunction,Plated,PTH,ViaDrill
T1C0.300
; #@! TA.AperFunction,Plated,PTH,ComponentDrill
T2C0.500
; #@! TA.AperFunction,Plated,PTH,ComponentDrill
T3C0.950
; #@! TA.AperFunction,Plated,PTH,ComponentDrill
T4C1.000
; #@! TA.AperFunction,Plated,PTH,ComponentDrill
T5C1.850
; #@! TA.AperFunction,Plated,PTH,ComponentDrill
T6C2.200
%
G90
G05
T1
X208.0Y-50.0
X208.0Y-52.0
X208.0Y-54.0
X208.0Y-56.0
X208.0Y-58.0
X208.0Y-60.0
X208.0Y-62.0
X208.0Y-64.0
X208.0Y-66.0
X208.0Y-68.0
X210.0Y-50.0
X212.0Y-47.0
X212.0Y-50.0
X212.0Y-52.0
X212.0Y-68.0
X212.0Y-70.0
X212.0Y-72.0
X214.0Y-50.0
X214.0Y-52.0
X214.0Y-68.0
X214.0Y-70.0
X214.0Y-72.0
X215.9Y-56.642
X216.0Y-50.0
X216.0Y-52.0
X216.0Y-68.0
X216.0Y-70.0
X216.0Y-72.0
X216.02Y-54.072
X216.662Y-53.594
X218.0Y-47.0
X218.0Y-50.0
X218.0Y-60.0
X218.0Y-62.0
X218.0Y-68.0
X218.0Y-72.0
X220.0Y-48.0
X220.0Y-62.0
X220.0Y-64.0
X220.0Y-66.0
X220.0Y-72.0
X220.8Y-50.0
X222.0Y-56.4
X222.0Y-64.0
X222.0Y-66.0
X222.0Y-72.0
X224.0Y-58.0
X224.0Y-64.0
X224.0Y-66.0
X224.0Y-68.0
X224.0Y-70.0
X224.0Y-72.0
X225.0Y-46.8
X225.6Y-50.6
X226.0Y-54.0
X226.0Y-56.0
X226.0Y-66.0
X226.0Y-68.0
X226.0Y-70.0
X226.0Y-72.0
X228.0Y-57.2
X228.0Y-58.0
X228.0Y-68.0
X228.0Y-70.0
X228.8Y-61.2
X228.8Y-69.8
X232.0Y-52.0
X232.0Y-56.0
X232.0Y-68.0
X232.0Y-70.0
X232.0Y-72.0
X233.68Y-57.5
X234.0Y-44.0
X234.0Y-46.0
X234.0Y-48.0
X234.0Y-50.0
X234.0Y-61.5
X234.0Y-64.0
X234.0Y-66.0
X234.0Y-70.0
X234.0Y-72.0
X236.0Y-44.0
X236.0Y-46.0
X236.0Y-48.0
X236.0Y-50.0
X236.0Y-53.0
X236.0Y-55.0
X236.0Y-57.0
X236.0Y-66.0
X236.0Y-68.0
X236.0Y-70.0
X236.0Y-72.0
X238.0Y-44.0
X238.0Y-46.0
X238.0Y-48.0
X238.0Y-50.0
X238.0Y-53.0
X238.0Y-55.0
X238.0Y-57.0
X238.0Y-66.0
X238.0Y-68.0
X238.0Y-70.0
X238.0Y-72.0
X240.0Y-53.0
X240.0Y-55.0
X240.0Y-60.0
X240.0Y-62.0
X240.0Y-64.0
X240.0Y-66.0
X240.0Y-68.0
X242.0Y-48.0
X242.0Y-50.0
X242.0Y-53.0
X242.0Y-60.0
X242.0Y-62.0
X242.0Y-64.0
X242.0Y-66.0
X242.0Y-68.0
X244.0Y-53.0
X244.0Y-60.0
X244.0Y-62.0
X244.0Y-64.0
X244.0Y-66.0
X244.0Y-68.0
T2
X217.0Y-44.6
X218.0Y-44.6
X219.0Y-44.6
X220.0Y-44.6
T3
X236.4Y-59.5
X236.4Y-62.0
X236.4Y-64.5
T4
X219.8Y-68.6
X222.3Y-68.6
T5
X212.6Y-56.4
X212.6Y-61.1
X212.6Y-65.8
T6
X208.788Y-45.212
X208.788Y-71.12
X241.808Y-45.212
X241.808Y-71.12
M30
